<svg xmlns="http://www.w3.org/2000/svg" viewBox="0 0 312.03 312.03"><title>addicted</title><path d="M179.14,98.13c0,9.38,0,18.33,0,27.28,0,7.5.06,7.58-7.39,8.31-26.39,2.59-52,8.47-76,19.91C73.46,164.3,56.34,180.48,48.85,204.8c-5.12,16.63-5.39,33.22,4.73,48.56,6,9,14.71,14.19,25,16.3,29.95,6.12,58.29,3,83.16-16.45,14.34-11.23,22.33-26.4,24.48-44.36a306,306,0,0,0,2.16-33.44c.3-32.59.17-65.19.13-97.78a58.81,58.81,0,0,0-.94-10.27c-1.92-10.71-8.11-18.07-18.77-20.28a52.42,52.42,0,0,0-19.28-.58c-10.85,1.91-18.09,9.26-20.51,19.86-1.84,8-1.94,16.52-2.41,24.83-.19,3.28-1.27,4.59-4.45,5.52-8.83,2.57-17.51,5.66-26.25,8.56-1.62.54-3.22,1.14-5.15,1.82a9.61,9.61,0,0,1-1-2.77c0-14.74-1-29.57,2.49-44.08C99,32.16,121.12,13.54,150,11.42c15.56-1.14,30.71.31,44.72,8,17,9.34,25.83,24.39,29.91,42.67,3.06,13.69,2.25,27.65,2.28,41.53.06,30-.08,60,.14,90,.07,9.75,1.35,19.41,6.74,28,10.79,17.13,34,17.72,46.26,1.17,8.32-11.18,10.53-24.15,10.8-37.64.1-4.91-.16-9.83-.22-14.75s3.89-8.6,8.26-6.93c1.7.65,3.95,3,3.93,4.53-.2,21.23,1.86,42.66-3.55,63.54-4.5,17.33-13.7,31.32-31.05,38.29-21.12,8.48-53.59,2.8-67.52-18-.12-.18-.41-.24-.89-.51-1.56,2.7-3,5.46-4.69,8.11-13.77,22.15-33.74,36-58.48,43.32-25.64,7.58-51.28,8.43-76.85-.47C30.22,292,14.39,270.46,10.26,240.2A100.76,100.76,0,0,1,23.2,174.48c8.33-14.34,19.65-26,32.72-36.12,20.68-16,44.19-25.83,69.22-32.68C142.7,100.86,160.53,98.7,179.14,98.13Z"/><path d="M127.31,153c0,13.39,0,26.28,0,39.18q.09,30.07.25,60.13c0,1,0,2,0,3,0,2.94-1,4.92-4.4,5-9.45.36-18.89.87-28.33,1.3-2.9.13-4.34-1.38-4.36-4.24,0-4.79,0-9.59,0-14.38,0-23.61,0-47.22-.12-70.84,0-3.15.88-5,3.87-6.17,9.79-3.92,19.48-8.07,29.24-12.08A26.19,26.19,0,0,1,127.31,153Z"/></svg>